<?xml version="1.0" encoding="UTF-8"?>
<svg version="1.1" xmlns="http://www.w3.org/2000/svg" width="512" height="491">
<path d="M0 0 C0.85698673 0.00291284 1.71397346 0.00582568 2.59692949 0.00882679 C3.95190874 0.00754515 3.95190874 0.00754515 5.3342613 0.00623763 C8.38529224 0.00458005 11.43626915 0.01010871 14.48729509 0.01555592 C16.66475479 0.01583776 18.84221459 0.01568012 21.01967424 0.01511341 C26.95125229 0.01482531 32.88281031 0.02072415 38.81438369 0.02768737 C45.0057224 0.03391873 51.19706152 0.03452453 57.38840288 0.03571278 C68.4537988 0.03864949 79.51918639 0.04587962 90.58457851 0.0553555 C104.60652416 0.0672998 118.62846867 0.07348206 132.65041834 0.0787577 C160.12917082 0.08922356 187.60791505 0.10682425 215.08666033 0.12908131 C215.08443971 1.3970672 215.0822191 2.66505308 215.0799312 3.97146279 C215.02895888 34.09726121 215.01932228 64.22276526 215.06031996 94.34856572 C215.06533436 98.05966496 215.07000125 101.77076456 215.07445329 105.48186451 C215.07534543 106.22065156 215.07623756 106.95943861 215.07715672 107.72061314 C215.09075824 119.66986194 215.07623365 131.61891845 215.05124336 143.56814174 C215.02621369 155.83683972 215.03157504 168.10525548 215.06491941 180.37393498 C215.08453034 187.93945266 215.08067333 195.50420079 215.04642403 203.06966951 C215.02266886 208.87915921 215.04127779 214.6879292 215.07539743 220.49733883 C215.08279881 222.87446312 215.07662379 225.2516757 215.05564111 227.62871891 C214.48286537 243.60761558 214.48286537 243.60761558 222.07884783 256.98115021 C225.13351524 260.24899277 226.81051463 263.68698714 227.64916033 268.06658131 C226.66821788 273.40726797 222.83578591 276.62288983 218.83666033 280.06658131 C217.08666033 281.12908131 217.08666033 281.12908131 215.08666033 281.12908131 C215.00856536 289.70987745 214.97946242 298.28889406 215.01150221 306.86991745 C215.02487355 310.85536531 215.02188495 314.83935308 214.98045915 318.82463795 C214.94103602 322.67684619 214.94595787 326.52676266 214.98058313 330.37899166 C214.98614716 331.84248094 214.9762003 333.30612056 214.94989389 334.76938397 C214.73189468 343.31994613 214.73189468 343.31994613 218.08504289 350.9903484 C220.31684657 353.2202746 222.61888659 355.16984827 225.08666033 357.12908131 C236.51412724 371.95282335 241.82411429 389.39107714 241.6081447 407.88762623 C241.58670207 410.06234786 241.60806964 412.23375582 241.63353533 414.40837818 C241.67821208 436.01241086 233.24329545 452.49601296 218.52416033 468.12908131 C199.41202655 486.80552814 175.75703531 491.86178116 149.9128322 491.70549732 C146.72231639 491.69162763 143.53474344 491.72584417 140.34447283 491.76384693 C117.94439711 491.84832321 94.01098405 486.52170565 76.08666033 472.12908131 C76.08666033 471.46908131 76.08666033 470.80908131 76.08666033 470.12908131 C75.52205095 469.88029225 74.95744158 469.63150318 74.37572283 469.37517506 C61.54050041 462.38808299 48.76197591 447.31141656 44.52806658 433.23064381 C43.88721473 430.17950845 44.0820573 428.07591685 45.08666033 425.12908131 C49.08666033 420.12908131 49.08666033 420.12908131 73.08666033 406.12908131 C41.73666033 405.79908131 10.38666033 405.46908131 -21.91333967 405.12908131 C-21.91333967 432.84908131 -21.91333967 460.56908131 -21.91333967 489.12908131 C-45.01333967 489.12908131 -68.11333967 489.12908131 -91.91333967 489.12908131 C-91.91333967 461.40908131 -91.91333967 433.68908131 -91.91333967 405.12908131 C-150.98333967 405.12908131 -210.05333967 405.12908131 -270.91333967 405.12908131 C-270.91333967 298.20908131 -270.91333967 191.28908131 -270.91333967 81.12908131 C-196.66333967 81.12908131 -122.41333967 81.12908131 -45.91333967 81.12908131 C-45.25333967 79.14908131 -44.59333967 77.16908131 -43.91333967 75.12908131 C-42.74563381 72.61746482 -41.55186575 70.14244645 -40.30567366 67.67082936 C-39.94610579 66.94979527 -39.58653792 66.22876118 -39.21607405 65.48587757 C-38.03441936 63.11888305 -36.84705713 60.75480456 -35.65943342 58.39080006 C-34.83484646 56.74281886 -34.01055571 55.0946894 -33.18654829 53.44641834 C-31.46326935 50.00142119 -29.73731848 46.5577809 -28.00928694 43.11516529 C-25.79019367 38.69402671 -23.57642292 34.27024969 -21.36444956 29.84554535 C-19.66494855 26.44681458 -17.9633688 23.0491282 -16.26107413 19.65179592 C-15.44362252 18.02008187 -14.62666015 16.38812263 -13.81018835 14.75591809 C-12.67267517 12.48304933 -11.5325429 10.21151481 -10.39161116 7.94036061 C-10.0523712 7.2614275 -9.71313124 6.58249439 -9.36361128 5.88298756 C-6.59743295 0.38871159 -6.23928939 0.01609534 0 0 Z M37.08666033 42.12908131 C26.99094047 61.5803384 26.99094047 61.5803384 17.08666033 81.12908131 C68.23666033 81.12908131 119.38666033 81.12908131 172.08666033 81.12908131 C172.08666033 68.25908131 172.08666033 55.38908131 172.08666033 42.12908131 C127.53666033 42.12908131 82.98666033 42.12908131 37.08666033 42.12908131 Z M108.08666033 405.12908131 C113.66162228 413.49152424 118.93980331 418.88953637 128.08666033 423.12908131 C128.77373064 423.45005787 129.46080095 423.77103443 130.16869158 424.10173756 C140.01634269 428.02983587 151.42373439 427.17683103 161.08666033 423.12908131 C164.34160423 421.65617373 167.21354491 420.19200443 169.52416033 417.37908131 C170.5154731 413.41383019 170.94625 408.84826065 169.08666033 405.12908131 C148.95666033 405.12908131 128.82666033 405.12908131 108.08666033 405.12908131 Z " fill="#007ACC" transform="translate(270.9133396744728,-0.12908130884170532)"/>
<path d="M0 0 C2.21446366 0.00313015 4.42754985 -0.02021398 6.6418457 -0.0456543 C16.3859559 -0.08819544 24.88765918 1.21727311 34.18286133 4.31567383 C34.18286133 4.97567383 34.18286133 5.63567383 34.18286133 6.31567383 C35.19219727 6.53868164 36.2015332 6.76168945 37.24145508 6.99145508 C41.64857058 8.25649125 44.73966891 10.62354967 48.24536133 13.50317383 C48.85516846 13.99567627 49.46497559 14.48817871 50.09326172 14.99560547 C54.2898751 18.44304523 58.12963839 21.78210037 61.18286133 26.31567383 C60.99861783 28.95267876 60.56625125 29.97854409 58.57226562 31.73193359 C57.89075439 32.15273193 57.20924316 32.57353027 56.50708008 33.00708008 C55.76135742 33.47694336 55.01563477 33.94680664 54.24731445 34.4309082 C53.46291992 34.90850586 52.67852539 35.38610352 51.87036133 35.87817383 C50.33189084 36.83667046 48.79410825 37.79627227 47.25708008 38.75708008 C46.57218506 39.17675049 45.88729004 39.5964209 45.18164062 40.02880859 C43.1101893 41.30480846 43.1101893 41.30480846 41.11572266 43.03808594 C40.47787842 43.45968994 39.84003418 43.88129395 39.18286133 44.31567383 C35.9092731 43.22447775 35.35191894 42.55927737 33.30786133 39.94067383 C30.87006125 36.96046323 28.56285058 35.20449135 25.18286133 33.31567383 C25.18286133 32.65567383 25.18286133 31.99567383 25.18286133 31.31567383 C24.57958008 31.19450195 23.97629883 31.07333008 23.35473633 30.94848633 C22.55551758 30.7809082 21.75629883 30.61333008 20.93286133 30.44067383 C19.74950195 30.19704102 19.74950195 30.19704102 18.54223633 29.94848633 C16.18286133 29.31567383 16.18286133 29.31567383 14.3112793 28.29931641 C7.45770471 25.13195554 -4.05539707 26.24719793 -11.14526367 28.26098633 C-13.56708774 29.44218273 -15.65586933 30.71243714 -17.81713867 32.31567383 C-18.40495117 32.69981445 -18.99276367 33.08395508 -19.59838867 33.47973633 C-23.93361424 36.60364887 -25.74652286 40.58149314 -27.81713867 45.31567383 C-28.17678711 45.93055664 -28.53643555 46.54543945 -28.90698242 47.17895508 C-31.8497102 54.08741901 -30.11199883 63.29184871 -27.73120117 70.16723633 C-22.28612095 82.9655018 -9.82239146 89.12628736 2.12036133 94.69067383 C3.12671631 95.16690186 4.13307129 95.64312988 5.16992188 96.13378906 C10.51375099 98.64935357 15.88595344 101.08216359 21.30566406 103.42919922 C41.93688423 112.37039141 66.96787115 123.97930311 75.91088867 146.11791992 C82.15055847 162.80069314 84.11617379 181.9264793 76.70629883 198.64770508 C75.00806702 201.66807627 73.18380076 204.48773321 71.18286133 207.31567383 C70.58473633 208.18836914 69.98661133 209.06106445 69.37036133 209.96020508 C58.27314492 225.01080483 42.18786165 232.4099844 24.18286133 235.31567383 C18.82344806 235.86971699 13.46406457 235.89571202 8.08105469 235.8371582 C5.74869566 235.8157045 3.41942548 235.83711036 1.0871582 235.86254883 C-23.89644184 235.90904152 -46.02548057 227.89212216 -64.48120117 210.69067383 C-74.81713867 200.18189456 -74.81713867 200.18189456 -74.81713867 195.31567383 C-71.07157788 193.16202103 -67.31997101 191.01912657 -63.56713867 188.87817383 C-61.97192383 187.96068359 -61.97192383 187.96068359 -60.34448242 187.0246582 C-59.31967773 186.44135742 -58.29487305 185.85805664 -57.23901367 185.25708008 C-55.82507324 184.44799194 -55.82507324 184.44799194 -54.38256836 183.62255859 C-52.14676304 182.48359153 -50.26695056 181.78194461 -47.81713867 181.31567383 C-47.30666992 182.00532227 -46.79620117 182.6949707 -46.27026367 183.40551758 C-36.45172496 196.09650113 -23.85958787 205.35658037 -7.81713867 208.31567383 C7.86752856 209.89774602 23.01087755 207.46349562 36.18286133 198.31567383 C42.4292504 192.89083488 45.94788316 185.51801375 47.05786133 177.37817383 C47.62641595 167.94599841 45.30814092 159.61437862 39.18286133 152.31567383 C25.8276214 140.22433673 6.97292105 133.80911576 -9.4387207 127.02246094 C-29.82722882 118.53053982 -48.93752878 105.03453956 -58.69213867 84.75317383 C-59.14012817 83.8335083 -59.14012817 83.8335083 -59.59716797 82.89526367 C-61.64382396 78.41279458 -62.49434375 74.18294527 -62.81713867 69.31567383 C-62.88288086 68.38811279 -62.94862305 67.46055176 -63.01635742 66.50488281 C-63.89207894 51.4189139 -63.42559621 39.96869002 -54.81713867 27.31567383 C-54.32858398 26.52676758 -53.8400293 25.73786133 -53.33666992 24.92504883 C-45.65822658 13.48619481 -34.9487824 5.95512764 -21.68432617 3.02661133 C-18.86805019 2.42363105 -18.86805019 2.42363105 -16.59326172 1.29003906 C-11.30239512 -0.56695228 -5.55639489 -0.0164013 0 0 Z " fill="#FBFDFE" transform="translate(412.817138671875,236.684326171875)"/>
<path d="M0 0 C57.42 0 114.84 0 174 0 C174 8.58 174 17.16 174 26 C150.57 26 127.14 26 103 26 C103 93.32 103 160.64 103 230 C92.44 230 81.88 230 71 230 C71 162.68 71 95.36 71 26 C47.57 26 24.14 26 0 26 C0 17.42 0 8.84 0 0 Z " fill="#FCFDFE" transform="translate(127,240)"/>
</svg>
